<svg id="Layer_1" enable-background="new 0 0 512 512" height="512" viewBox="0 0 512 512" width="512" xmlns="http://www.w3.org/2000/svg"><path d="m316 0v390l-30 30h-210l-30-30v-390z" fill="#465a61"/><path d="m316 0v390l-30 30h-105v-420z" fill="#3b4a51"/><path d="m136 60h90v30h-90z" fill="#596c76"/><path d="m181 60h45v30h-45z" fill="#465a61"/><path d="m46 390h270v122h-270z" fill="#d1effa"/><path d="m181 390h135v122h-135z" fill="#97e1ff"/><path d="m166 436h30v30h-30z" fill="#465a61"/><path d="m181 436h15v30h-15z" fill="#3b4a51"/><path d="m405.099 181.199c-6.599-51.3-50.698-91.199-104.099-91.199s-97.5 39.899-104.099 91.199c-34.501 6.9-60.901 37.2-60.901 73.801 0 41.4 33.6 75 75 75h180c41.4 0 75-33.6 75-75 0-36.601-26.4-66.901-60.901-73.801z" fill="#e6ffff"/><path d="m466 255c0 41.4-33.6 75-75 75h-90v-240c53.401 0 97.5 39.899 104.099 91.199 34.501 6.9 60.901 37.2 60.901 73.801z" fill="#d1effa"/></svg>